<svg width="12" height="18" viewBox="0 0 12 18" fill="none" xmlns="http://www.w3.org/2000/svg">
<path fill-rule="evenodd" clip-rule="evenodd" d="M11.7071 6.70711C12.0976 6.31658 12.0976 5.68342 11.7071 5.29289L6.70711 0.292892C6.51957 0.105356 6.26522 -6.83866e-08 6 -7.15493e-08C5.73478 -7.4712e-08 5.48043 0.105356 5.29289 0.292892L0.292894 5.29289C-0.0976313 5.68342 -0.0976313 6.31658 0.292894 6.70711C0.683417 7.09763 1.31658 7.09763 1.70711 6.70711L5 3.41421L5 17C5 17.5523 5.44772 18 6 18C6.55229 18 7 17.5523 7 17L7 3.41421L10.2929 6.70711C10.6834 7.09763 11.3166 7.09763 11.7071 6.70711Z" fill="#7575E2"/>
</svg>
