<svg width="100" height="36" viewBox="0 0 100 36" fill="none" xmlns="http://www.w3.org/2000/svg">
<path fill-rule="evenodd" clip-rule="evenodd" d="M49.4924 25.9646C52.1204 23.6625 54.3352 20.9404 55.8734 17.9914C54.3351 15.0424 52.1202 12.3204 49.4921 10.0182C50.5145 12.4836 51.077 15.1755 51.077 17.9918C51.077 20.8078 50.5146 23.4994 49.4924 25.9646ZM2.1328 18.0209C3.64348 21.0179 5.88031 23.7552 8.55495 26.0607C7.50731 23.5694 6.9302 20.8444 6.9302 17.9918C6.9302 15.215 7.47704 12.5591 8.47241 10.122C4.95418 13.2918 2.9315 16.5642 2.1328 18.0209ZM11.4558 7.75198C11.4558 7.75203 11.4557 7.75208 11.4556 7.75213L11.4558 7.75198ZM46.197 28.025C45.5975 28.9878 46.7802 30.4735 47.7271 29.8235C52.0185 26.8777 55.6777 22.894 57.9053 18.3946C58.0316 18.1395 58.0316 17.8432 57.9053 17.5881C55.6777 13.0889 52.0182 9.10521 47.7267 6.15939C46.7798 5.50939 45.5971 6.99518 46.1967 7.95801C48.0208 10.8874 49.0703 14.3208 49.0703 17.9918C49.0703 21.6625 48.0209 25.0957 46.197 28.025ZM0.0935677 17.6119C-0.0310702 17.8558 -0.0294503 18.1337 0.0880411 18.3809C2.25601 22.9412 5.93943 26.9103 10.2659 29.8441C11.2166 30.4888 12.4089 28.9867 11.8094 28.0238C9.98598 25.0948 8.93687 21.662 8.93687 17.9918C8.93687 14.3213 9.98611 10.8884 11.8098 7.95923C12.4093 6.99634 11.2271 5.51647 10.2848 6.17274C3.98542 10.5599 0.853854 16.1246 0.0935677 17.6119Z" fill="#9A9AC6"/>
<path fill-rule="evenodd" clip-rule="evenodd" d="M27.6353 25.5242C26.8775 25.4102 26.2785 26.1568 26.5532 26.873L29.9259 35.6657C30.008 35.8796 30.2193 36.0166 30.4474 35.9984C35.3048 35.6108 39.6189 33.2899 42.6242 29.8031C42.6747 29.7445 42.7248 29.6856 42.7745 29.6264C43.155 29.1734 43.5136 28.7013 43.8488 28.2119C43.8781 28.1692 43.9072 28.1263 43.9361 28.0833C43.9666 28.0379 43.9394 27.9764 43.8854 27.9683L27.6353 25.5242ZM34.5847 23.0454C34.1271 23.6511 34.4835 24.5264 35.2337 24.6392L44.367 26.0129C44.7943 26.0772 45.2171 25.8605 45.3957 25.4666C46.4261 23.193 47 20.6674 47 18.0074C47 15.72 46.5756 13.532 45.8016 11.5183C45.7712 11.4393 45.7403 11.3606 45.7089 11.2821C45.4688 10.683 45.1976 10.0997 44.8973 9.53441C44.8889 9.51869 44.8805 9.503 44.8721 9.48731C44.8637 9.47147 44.8417 9.46978 44.8308 9.48412L34.5847 23.0454ZM30.3499 10.3311C31.1077 10.4451 31.7067 9.69848 31.432 8.98234L28.0592 0.189563C28.013 0.0690201 27.8939 -0.00806901 27.7652 0.00067358C22.8863 0.332115 18.5407 2.61293 15.4969 6.07261C15.4337 6.14444 15.3711 6.21678 15.309 6.28962C14.8784 6.795 14.4751 7.32452 14.1014 7.87586C14.1001 7.87782 14.0988 7.87979 14.0974 7.88175C14.096 7.88382 14.0973 7.88666 14.0998 7.88703L30.3499 10.3311ZM17.9145 6.43623L28.9496 8.09595L26.6615 2.13091C23.292 2.6255 20.2612 4.17423 17.9145 6.43623ZM44.3449 13.4462L37.195 22.9096L43.8813 23.9153C44.6028 22.0891 45 20.0969 45 18.0074C45 16.4213 44.7711 14.8908 44.3449 13.4462ZM23.4004 12.8099C23.858 12.2042 23.5016 11.3289 22.7514 11.2161L13.7005 9.8548C13.2764 9.79103 12.8564 10.0038 12.6756 10.393C11.6004 12.7065 11 15.2867 11 18.0074C11 20.2497 11.4078 22.3965 12.1531 24.3773C12.1809 24.451 12.209 24.5245 12.2377 24.5977C12.4569 25.1578 12.7032 25.7043 12.975 26.2355C12.9967 26.2777 13.0184 26.3198 13.0404 26.3619C13.0634 26.406 13.1243 26.4109 13.1543 26.3712L23.4004 12.8099ZM13.6175 22.4392L20.7902 12.9457L14.1782 11.9512C13.419 13.8177 13 15.8613 13 18.0074C13 19.5463 13.2155 21.0328 13.6175 22.4392ZM40.2251 29.4423L29.0356 27.7594L31.3823 33.8774C34.8013 33.3658 37.8695 31.7684 40.2251 29.4423ZM41.2099 7.63667C39.1533 5.20388 36.3902 3.39643 33.2424 2.53066L37.2244 12.9117L41.2099 7.63667ZM24.8093 33.4982L20.7607 22.9436L16.7189 28.2933C18.7938 30.7822 21.6035 32.6282 24.8093 33.4982ZM27.3643 34.574L21.9826 20.5437C21.7013 19.8105 20.7247 19.6723 20.2514 20.2987L14.6463 27.7175C14.3855 28.0626 14.3736 28.5382 14.6341 28.8836C17.4213 32.5791 21.5941 35.1655 26.3773 35.8657C27.0966 35.971 27.6249 35.2533 27.3643 34.574ZM43.2859 8.20801L37.7337 15.5566C37.2604 16.183 36.2838 16.0448 36.0026 15.3116L30.6847 1.44784C30.4237 0.767449 30.9539 0.0491348 31.674 0.156668C36.3951 0.861668 40.5176 3.40483 43.2943 7.03688C43.5585 7.3824 43.548 7.861 43.2859 8.20801Z" fill="#9A9AC6"/>
<path d="M64.8688 14.1669V9.56714C64.8688 8.87875 65.0297 8.26858 65.3515 7.73664C65.6733 7.19426 66.1292 6.77184 66.7191 6.46936C67.3091 6.15645 68.0009 6 68.7947 6C69.5884 6 70.2749 6.15645 70.8541 6.46936C71.4441 6.77184 71.8999 7.19426 72.2217 7.73664C72.5435 8.26858 72.7044 8.87875 72.7044 9.56714V14.1669H70.8702V9.58279C70.8702 9.17601 70.7737 8.82138 70.5806 8.5189C70.3875 8.206 70.1301 7.9661 69.8083 7.79922C69.4972 7.6219 69.154 7.53325 68.7786 7.53325C68.4139 7.53325 68.0706 7.6219 67.7489 7.79922C67.4378 7.9661 67.1857 8.206 66.9926 8.5189C66.8103 8.82138 66.7191 9.17601 66.7191 9.58279V14.1669H64.8688Z" fill="#9A9AC6"/>
<path d="M78.7541 14.1669C77.8316 14.1669 77.0218 14 76.3246 13.6662C75.6381 13.322 75.1018 12.8527 74.7156 12.2581C74.3295 11.6532 74.1364 10.9596 74.1364 10.1773C74.1364 9.35333 74.308 8.62842 74.6512 8.00261C74.9945 7.37679 75.4664 6.88657 76.0671 6.53194C76.6678 6.17731 77.3596 6 78.1427 6C79.0222 6 79.7463 6.18253 80.3148 6.54759C80.8832 6.91265 81.3016 7.40287 81.5697 8.01825C81.8486 8.63364 81.9881 9.32203 81.9881 10.0834C81.9881 10.1877 81.9827 10.3077 81.972 10.4433C81.9612 10.5789 81.9452 10.6832 81.9237 10.7562H76.0993C76.1637 11.1734 76.3192 11.5228 76.5659 11.8044C76.8126 12.0756 77.1237 12.2842 77.4991 12.4302C77.8745 12.5658 78.2928 12.6336 78.7541 12.6336H80.9583V14.1669H78.7541ZM76.0832 9.53585H80.1378C80.127 9.33768 80.0949 9.1395 80.0412 8.94133C79.9983 8.74316 79.9232 8.55541 79.816 8.3781C79.7194 8.20078 79.5907 8.04954 79.4298 7.92438C79.2797 7.78879 79.0973 7.68448 78.8828 7.61147C78.6683 7.52803 78.4216 7.48631 78.1427 7.48631C77.8209 7.48631 77.5366 7.54889 77.2899 7.67405C77.0432 7.78879 76.8341 7.94524 76.6624 8.14342C76.4908 8.33116 76.3567 8.5502 76.2602 8.80052C76.1744 9.04042 76.1154 9.28553 76.0832 9.53585Z" fill="#9A9AC6"/>
<path d="M86.2905 14.3546C85.7542 14.3546 85.2661 14.2555 84.8263 14.0574C84.3866 13.8488 84.038 13.5359 83.7805 13.1186C83.5231 12.691 83.3944 12.1486 83.3944 11.4915V6.18774H85.2447V11.7731C85.2447 11.9817 85.2929 12.1695 85.3895 12.3364C85.486 12.4928 85.6094 12.6128 85.7595 12.6962C85.9204 12.7797 86.0974 12.8214 86.2905 12.8214C86.4728 12.8214 86.6445 12.7797 86.8054 12.6962C86.9662 12.6128 87.095 12.4928 87.1915 12.3364C87.288 12.1695 87.3363 11.9817 87.3363 11.7731V8.83181C87.3363 8.21643 87.4543 7.70013 87.6903 7.28292C87.937 6.85528 88.2749 6.53716 88.7039 6.32855C89.1437 6.10952 89.6425 6 90.2002 6C90.7687 6 91.2675 6.10952 91.6966 6.32855C92.1256 6.53716 92.4635 6.85528 92.7102 7.28292C92.9569 7.70013 93.0803 8.21643 93.0803 8.83181V11.7731C93.0803 11.9817 93.1285 12.1695 93.2251 12.3364C93.3216 12.4928 93.4503 12.6128 93.6112 12.6962C93.7721 12.7797 93.9491 12.8214 94.1422 12.8214C94.3245 12.8214 94.4908 12.7797 94.6409 12.6962C94.8018 12.6128 94.9305 12.4928 95.0271 12.3364C95.1236 12.1695 95.1719 11.9817 95.1719 11.7731V6.18774H97.0222V11.4915C97.0222 12.1486 96.8935 12.691 96.636 13.1186C96.3786 13.5359 96.03 13.8488 95.5902 14.0574C95.1504 14.2555 94.6678 14.3546 94.1422 14.3546C93.6166 14.3546 93.1339 14.2555 92.6941 14.0574C92.2543 13.8488 91.9004 13.5359 91.6322 13.1186C91.364 12.691 91.23 12.1486 91.23 11.4915V8.58149C91.23 8.35202 91.1817 8.16428 91.0852 8.01825C90.9993 7.8618 90.876 7.74185 90.7151 7.65841C90.5649 7.57497 90.3933 7.53325 90.2002 7.53325C90.0286 7.53325 89.8624 7.57497 89.7015 7.65841C89.5406 7.74185 89.4119 7.8618 89.3153 8.01825C89.2188 8.16428 89.1705 8.35202 89.1705 8.58149V11.4915C89.1705 12.1486 89.0364 12.691 88.7683 13.1186C88.5108 13.5359 88.1622 13.8488 87.7225 14.0574C87.2934 14.2555 86.8161 14.3546 86.2905 14.3546Z" fill="#9A9AC6"/>
<path d="M68.3924 30C67.9634 30 67.5772 29.8853 67.234 29.6558C66.9015 29.4263 66.6601 29.1186 66.51 28.7327L64 21.8331H66.0112L68.1511 28.0287C68.1833 28.1017 68.2208 28.1538 68.2637 28.1851C68.3066 28.2164 68.3549 28.2321 68.4085 28.2321C68.4622 28.2321 68.5104 28.2164 68.5533 28.1851C68.607 28.1538 68.6445 28.1017 68.666 28.0287L70.8219 21.8331H72.801L70.2749 28.7327C70.1355 29.1186 69.8941 29.4263 69.5509 29.6558C69.2076 29.8853 68.8215 30 68.3924 30Z" fill="#9A9AC6"/>
<path d="M73.8331 29.8123V21.8331H75.6834V29.8123H73.8331ZM74.7502 20.7223C74.4284 20.7223 74.1495 20.6076 73.9135 20.3781C73.6775 20.1486 73.5595 19.8774 73.5595 19.5645C73.5595 19.2516 73.6775 18.9804 73.9135 18.751C74.1495 18.5215 74.4284 18.4068 74.7502 18.4068C75.0827 18.4068 75.3616 18.5215 75.5868 18.751C75.8228 18.9804 75.9408 19.2516 75.9408 19.5645C75.9408 19.8774 75.8228 20.1486 75.5868 20.3781C75.3616 20.6076 75.0827 20.7223 74.7502 20.7223Z" fill="#9A9AC6"/>
<path d="M81.7319 29.8123C80.8094 29.8123 79.9996 29.6454 79.3024 29.3116C78.6159 28.9674 78.0796 28.498 77.6934 27.9035C77.3073 27.2986 77.1142 26.605 77.1142 25.8227C77.1142 24.9987 77.2858 24.2738 77.6291 23.648C77.9723 23.0222 78.4443 22.5319 79.0449 22.1773C79.6456 21.8227 80.3375 21.6454 81.1205 21.6454C82 21.6454 82.7241 21.8279 83.2926 22.193C83.8611 22.558 84.2794 23.0482 84.5475 23.6636C84.8264 24.279 84.9659 24.9674 84.9659 25.7288C84.9659 25.8331 84.9605 25.9531 84.9498 26.0887C84.9391 26.2243 84.923 26.3286 84.9015 26.4016H79.0771C79.1415 26.8188 79.297 27.1682 79.5437 27.4498C79.7904 27.721 80.1015 27.9296 80.4769 28.0756C80.8523 28.2112 81.2706 28.279 81.7319 28.279H83.9361V29.8123H81.7319ZM79.061 25.1812H83.1156C83.1049 24.9831 83.0727 24.7849 83.019 24.5867C82.9761 24.3885 82.9011 24.2008 82.7938 24.0235C82.6973 23.8462 82.5685 23.6949 82.4076 23.5698C82.2575 23.4342 82.0751 23.3299 81.8606 23.2568C81.6461 23.1734 81.3994 23.1317 81.1205 23.1317C80.7987 23.1317 80.5144 23.1943 80.2677 23.3194C80.021 23.4342 79.8119 23.5906 79.6402 23.7888C79.4686 23.9765 79.3345 24.1956 79.238 24.4459C79.1522 24.6858 79.0932 24.9309 79.061 25.1812Z" fill="#9A9AC6"/>
<path d="M89.2683 30C88.732 30 88.2439 29.9009 87.8042 29.7027C87.3644 29.4941 87.0158 29.1812 86.7583 28.764C86.5009 28.3364 86.3722 27.794 86.3722 27.1369V21.8331H88.2225V27.4185C88.2225 27.6271 88.2708 27.8149 88.3673 27.9817C88.4638 28.1382 88.5872 28.2582 88.7374 28.3416C88.8982 28.425 89.0752 28.4668 89.2683 28.4668C89.4507 28.4668 89.6223 28.425 89.7832 28.3416C89.9441 28.2582 90.0728 28.1382 90.1693 27.9817C90.2659 27.8149 90.3141 27.6271 90.3141 27.4185V24.4772C90.3141 23.8618 90.4321 23.3455 90.6681 22.9283C90.9148 22.5007 91.2527 22.1825 91.6817 21.9739C92.1215 21.7549 92.6203 21.6454 93.1781 21.6454C93.7465 21.6454 94.2453 21.7549 94.6744 21.9739C95.1034 22.1825 95.4413 22.5007 95.688 22.9283C95.9347 23.3455 96.0581 23.8618 96.0581 24.4772V27.4185C96.0581 27.6271 96.1063 27.8149 96.2029 27.9817C96.2994 28.1382 96.4281 28.2582 96.589 28.3416C96.7499 28.425 96.9269 28.4668 97.12 28.4668C97.3023 28.4668 97.4686 28.425 97.6188 28.3416C97.7796 28.2582 97.9084 28.1382 98.0049 27.9817C98.1014 27.8149 98.1497 27.6271 98.1497 27.4185V21.8331H100V27.1369C100 27.794 99.8713 28.3364 99.6138 28.764C99.3564 29.1812 99.0078 29.4941 98.568 29.7027C98.1283 29.9009 97.6456 30 97.12 30C96.5944 30 96.1117 29.9009 95.6719 29.7027C95.2321 29.4941 94.8782 29.1812 94.61 28.764C94.3419 28.3364 94.2078 27.794 94.2078 27.1369V24.2269C94.2078 23.9974 94.1595 23.8096 94.063 23.6636C93.9772 23.5072 93.8538 23.3872 93.6929 23.3038C93.5427 23.2203 93.3711 23.1786 93.1781 23.1786C93.0064 23.1786 92.8402 23.2203 92.6793 23.3038C92.5184 23.3872 92.3897 23.5072 92.2931 23.6636C92.1966 23.8096 92.1483 23.9974 92.1483 24.2269V27.1369C92.1483 27.794 92.0142 28.3364 91.7461 28.764C91.4887 29.1812 91.14 29.4941 90.7003 29.7027C90.2712 29.9009 89.7939 30 89.2683 30Z" fill="#9A9AC6"/>
</svg>
