<svg width="22" height="22" viewBox="0 0 22 22" fill="none" xmlns="http://www.w3.org/2000/svg">
<path fill-rule="evenodd" clip-rule="evenodd" d="M22 11C22 17.0751 17.0751 22 11 22C4.92487 22 0 17.0751 0 11C0 4.92487 4.92487 0 11 0C17.0751 0 22 4.92487 22 11ZM16.7252 9.39179C17.6129 9.39179 18.3334 10.1123 18.3334 11C18.3334 11.6561 17.9345 12.2222 17.407 12.4795C17.4328 12.6339 17.4456 12.7883 17.4456 12.9555C17.4456 15.4257 14.5766 17.4199 11.0258 17.4199C7.47488 17.4199 4.60587 15.4257 4.60587 12.9555C4.60587 12.7883 4.61874 12.621 4.64447 12.4666C4.07839 12.2093 3.69242 11.6561 3.69242 11C3.69242 10.1123 4.41289 9.39179 5.30061 9.39179C5.72517 9.39179 6.124 9.5719 6.40704 9.84208C7.51348 9.03155 9.04447 8.5298 10.7556 8.47834L11.5661 4.64442C11.5918 4.56723 11.6304 4.5029 11.6948 4.4643C11.7591 4.42571 11.8363 4.41284 11.9135 4.42571L14.5766 4.99179C14.7568 4.60582 15.1427 4.34851 15.593 4.34851C16.2234 4.34851 16.738 4.86313 16.738 5.49354C16.738 6.12395 16.2234 6.63857 15.593 6.63857C14.9755 6.63857 14.4737 6.14968 14.448 5.545L12.0679 5.04325L11.3345 8.47834C13.007 8.54267 14.5252 9.05728 15.6187 9.84208C15.9018 9.55904 16.2877 9.39179 16.7252 9.39179ZM8.47839 11C7.84798 11 7.33336 11.5146 7.33336 12.145C7.33336 12.7754 7.84798 13.29 8.47839 13.29C9.1088 13.29 9.62342 12.7754 9.62342 12.145C9.62342 11.5146 9.1088 11 8.47839 11ZM11.0129 16.0047C11.4503 16.0047 12.9427 15.9532 13.7275 15.1684C13.8433 15.0526 13.8433 14.8725 13.7532 14.7438C13.6375 14.628 13.4445 14.628 13.3287 14.7438C12.8269 15.2327 11.7848 15.4128 11.0258 15.4128C10.2667 15.4128 9.21172 15.2327 8.72283 14.7438C8.60704 14.628 8.41406 14.628 8.29827 14.7438C8.18248 14.8596 8.18248 15.0526 8.29827 15.1684C9.0702 15.9403 10.5755 16.0047 11.0129 16.0047ZM12.3766 12.145C12.3766 12.7754 12.8913 13.29 13.5217 13.29C14.1521 13.29 14.6667 12.7754 14.6667 12.145C14.6667 11.5146 14.1521 11 13.5217 11C12.8913 11 12.3766 11.5146 12.3766 12.145Z" fill="currentColor"/>
</svg>
