<svg width="17" height="16" viewBox="0 0 17 16" fill="none" xmlns="http://www.w3.org/2000/svg">
<path fill-rule="evenodd" clip-rule="evenodd" d="M0.60557 0.552718C0.852583 0.0587512 1.45327 -0.141444 1.94723 0.10557L3.94748 1.10581C4.25085 1.25752 4.45665 1.55267 4.4941 1.88979L4.71975 3.92061L15.4148 3.00387C15.7425 2.97579 16.063 3.1106 16.2721 3.36445C16.4812 3.6183 16.5521 3.95872 16.4617 4.27494L14.4617 11.2749C14.3391 11.7042 13.9467 12.0002 13.5002 12.0002H4.50022C3.99067 12.0002 3.56261 11.6171 3.50634 11.1107L2.83967 5.11067L2.56641 2.65132L1.05272 1.89438C0.558751 1.64737 0.358556 1.04668 0.60557 0.552718ZM4.94068 5.909L5.39526 10.0002H12.7459L14.1401 5.12047L4.94068 5.909ZM6.50046 14.5005C6.50046 15.3289 5.82889 16.0005 5.00046 16.0005C4.17204 16.0005 3.50046 15.3289 3.50046 14.5005C3.50046 13.672 4.17204 13.0005 5.00046 13.0005C5.82889 13.0005 6.50046 13.672 6.50046 14.5005ZM12.001 16.0005C12.8294 16.0005 13.501 15.3289 13.501 14.5005C13.501 13.672 12.8294 13.0005 12.001 13.0005C11.1725 13.0005 10.501 13.672 10.501 14.5005C10.501 15.3289 11.1725 16.0005 12.001 16.0005Z" fill="#7575E2"/>
</svg>
