<?xml version="1.0" standalone="no"?>
<!DOCTYPE svg PUBLIC "-//W3C//DTD SVG 20010904//EN"
"http://www.w3.org/TR/2001/REC-SVG-20010904/DTD/svg10.dtd">
<svg version="1.0" xmlns="http://www.w3.org/2000/svg" width="928.000000pt" height="928.000000pt" viewBox="0 0 928.000000 928.000000" preserveAspectRatio="xMidYMid meet">
<metadata>
Created by potrace 1.14, written by Peter Selinger 2001-2017
</metadata>
<g transform="translate(0.000000,928.000000) scale(0.100000,-0.100000)"
fill="#000000" stroke="none">
<path d="M4357 7514 c-1 -1 -24 -4 -52 -7 -135 -15 -212 -29 -385 -72 -138
-34 -400 -127 -480 -171 -14 -7 -41 -20 -60 -28 -19 -8 -66 -33 -105 -54 -38
-21 -86 -47 -105 -58 -19 -10 -37 -21 -40 -24 -11 -11 -101 -70 -106 -70 -4 0
-19 -10 -34 -22 -15 -13 -37 -30 -50 -38 -12 -8 -30 -22 -40 -30 -10 -8 -47
-37 -82 -65 -34 -27 -79 -66 -99 -85 -20 -19 -52 -49 -70 -66 -35 -32 -152
-155 -204 -215 -46 -52 -185 -239 -185 -247 0 -5 19 -9 42 -11 23 -1 44 -4 48
-6 4 -2 29 -7 56 -10 27 -4 60 -8 74 -11 14 -2 43 -6 65 -9 22 -3 51 -7 65
-10 14 -3 45 -8 70 -11 25 -3 56 -7 69 -9 13 -2 45 -7 70 -11 25 -4 55 -8 66
-11 11 -2 38 -6 60 -9 22 -3 65 -9 95 -14 30 -5 75 -12 100 -15 25 -3 59 -8
75 -11 17 -3 46 -7 65 -9 19 -2 46 -7 60 -9 14 -3 43 -8 65 -11 22 -3 51 -7
65 -10 14 -3 43 -7 65 -10 22 -3 51 -7 65 -9 14 -3 61 -10 105 -16 44 -6 91
-13 104 -15 13 -2 45 -7 70 -11 25 -4 55 -8 66 -10 11 -2 40 -7 65 -9 25 -3
52 -8 60 -10 8 -2 39 -7 69 -10 30 -4 63 -9 75 -11 20 -4 110 -17 201 -30 22
-3 47 -7 55 -9 13 -4 31 -6 127 -20 15 -2 60 -9 98 -15 69 -11 156 -22 185
-23 87 -5 167 81 157 167 -5 39 -33 125 -62 191 -7 17 -34 86 -60 155 -55 148
-143 377 -156 405 -4 11 -33 85 -63 165 -52 138 -103 273 -176 460 -18 47 -39
91 -46 98 -11 10 -105 16 -117 6z m-87 -345 c0 -4 8 -24 17 -45 9 -22 17 -41
18 -44 1 -9 56 -155 73 -195 9 -21 17 -42 18 -45 1 -7 14 -41 25 -65 5 -11 27
-67 48 -125 22 -58 47 -122 55 -142 9 -21 13 -38 9 -38 -5 0 -3 -4 2 -8 6 -4
17 -27 27 -52 9 -25 28 -76 42 -114 l27 -68 -53 6 c-64 8 -68 9 -240 35 -75
12 -153 23 -175 26 -21 3 -49 7 -63 10 -14 3 -43 7 -65 10 -22 3 -49 7 -60 9
-11 2 -42 7 -70 10 -27 4 -61 8 -75 11 -14 2 -41 7 -60 9 -19 3 -46 8 -60 10
-14 2 -47 7 -73 11 -27 4 -59 8 -70 11 -12 2 -40 6 -62 9 -22 3 -49 7 -60 9
-11 2 -42 7 -70 10 -27 4 -66 10 -85 12 -19 3 -46 7 -60 10 -33 6 -156 24
-200 30 -41 5 -99 14 -120 19 -8 2 -22 4 -30 5 -18 1 34 49 175 161 120 96
108 86 175 130 193 127 436 244 635 306 28 9 242 64 264 68 14 3 39 8 56 11
16 3 31 6 32 8 6 5 53 1 53 -5z"/>
<path d="M5008 7490 c-65 -19 -108 -78 -108 -146 0 -19 15 -73 34 -122 19 -48
58 -148 86 -222 28 -74 62 -162 75 -195 13 -33 60 -157 105 -275 45 -118 97
-253 115 -300 18 -47 70 -182 115 -300 45 -118 86 -224 91 -235 5 -11 33 -85
63 -165 30 -80 73 -192 96 -250 23 -58 48 -125 57 -150 29 -83 67 -140 95
-140 8 0 19 -5 26 -12 6 -6 30 -11 52 -10 62 3 108 31 155 97 18 25 60 81 83
110 4 6 97 129 207 275 400 533 448 595 456 598 5 2 9 8 9 13 0 5 25 41 56 81
31 40 63 87 70 104 24 57 5 127 -51 190 -5 6 -26 30 -45 54 -46 57 -163 181
-224 239 -133 124 -127 118 -246 208 -52 40 -101 78 -107 83 -13 10 -88 57
-191 119 -143 84 -486 237 -574 255 -13 3 -54 14 -93 26 -62 18 -186 47 -240
56 -11 2 -33 6 -50 9 -67 12 -91 13 -117 5z m462 -423 c69 -24 143 -52 165
-61 156 -70 346 -171 353 -188 2 -4 8 -8 13 -8 17 0 236 -160 314 -229 108
-97 276 -275 270 -289 -3 -7 -15 -27 -28 -43 -12 -16 -35 -47 -52 -68 -16 -21
-39 -51 -50 -66 -11 -16 -25 -33 -30 -39 -6 -6 -35 -45 -65 -86 -30 -41 -59
-80 -65 -86 -5 -7 -19 -24 -30 -40 -20 -28 -97 -130 -113 -149 -4 -5 -34 -46
-67 -90 -33 -44 -63 -84 -67 -90 -4 -5 -20 -25 -34 -43 l-27 -33 -38 93 c-22
51 -39 97 -39 101 0 5 -6 23 -14 40 -8 18 -59 149 -114 292 -54 143 -103 269
-107 280 -5 11 -9 23 -10 28 -2 4 -4 9 -5 12 -1 3 -3 8 -5 13 -1 4 -7 21 -14
37 -11 28 -61 157 -163 425 -21 58 -45 119 -52 135 -8 17 -22 53 -31 80 -10
28 -22 55 -27 61 -4 6 -5 14 -1 17 3 4 0 13 -7 22 -20 24 3 19 140 -28z"/>
<path d="M1649 6532 c-100 -60 -390 -290 -542 -431 -137 -126 -341 -337 -452
-466 -186 -215 -441 -571 -536 -745 -13 -25 -26 -47 -29 -50 -5 -5 -16 -26
-67 -122 -18 -35 -24 -58 -20 -86 4 -38 99 -239 154 -325 14 -23 26 -43 25
-44 -2 -3 64 -104 78 -120 5 -7 10 -15 10 -19 0 -9 155 -227 223 -314 116
-148 262 -310 406 -452 121 -119 270 -256 316 -291 5 -4 23 -19 39 -33 36 -32
364 -275 395 -292 59 -34 121 -26 178 23 68 58 101 150 81 224 -5 18 -27 62
-49 97 -21 35 -65 117 -98 182 -51 103 -74 152 -126 277 -29 68 -85 248 -113
360 -28 109 -34 138 -47 215 -2 14 -6 39 -9 55 -25 157 -30 231 -30 465 0 198
4 288 18 380 2 14 7 52 12 85 4 33 9 62 9 65 1 3 5 23 9 45 5 22 19 85 33 140
14 55 26 105 27 110 14 72 118 353 162 438 13 26 22 47 18 47 -3 0 3 12 13 28
11 15 28 46 38 69 11 24 24 43 28 43 5 0 6 4 3 9 -3 5 1 14 9 21 8 7 15 16 15
20 0 4 18 38 40 74 32 53 41 78 43 122 2 34 -2 62 -10 72 -7 9 -13 23 -13 30
0 15 -46 68 -81 93 -15 10 -46 21 -70 24 -36 4 -53 0 -90 -23z m-304 -654 c-2
-7 -19 -56 -39 -108 -32 -88 -100 -315 -111 -371 -42 -212 -59 -316 -73 -449
-9 -85 -8 -548 2 -625 4 -33 9 -79 11 -103 5 -49 13 -103 30 -189 33 -168 59
-270 101 -405 15 -46 26 -85 26 -88 0 -3 4 -12 8 -21 20 -37 58 -149 51 -149
-4 0 -48 37 -96 83 -209 195 -357 355 -499 537 -36 47 -73 94 -82 105 -8 11
-23 32 -32 48 -9 15 -20 27 -24 27 -4 0 -8 5 -8 10 0 12 -41 73 -52 78 -5 2
-8 10 -8 18 0 8 -3 14 -7 14 -5 0 -13 10 -19 23 -6 12 -34 59 -62 105 -28 45
-49 82 -45 82 3 0 0 7 -7 15 -7 9 -25 39 -41 68 l-27 52 21 40 c12 22 25 42
28 45 3 3 11 20 18 38 8 17 17 32 22 32 5 0 9 6 9 13 0 6 11 25 25 41 14 16
25 33 25 38 0 5 5 14 10 21 6 7 36 50 67 97 31 47 59 87 63 90 3 3 17 21 30
40 23 34 159 210 170 220 3 3 18 21 34 40 95 116 463 500 480 500 3 0 4 -6 1
-12z"/>
<path d="M7495 6546 c-72 -34 -128 -123 -128 -207 0 -40 9 -63 48 -132 74
-126 152 -276 186 -358 31 -74 89 -225 93 -244 2 -5 5 -17 8 -25 23 -63 84
-297 93 -359 2 -14 7 -38 9 -54 33 -170 40 -253 40 -517 0 -209 -6 -341 -18
-407 -3 -11 -8 -43 -12 -70 -8 -55 -12 -78 -19 -113 -3 -14 -7 -34 -9 -45 -11
-56 -47 -195 -60 -233 -8 -23 -16 -44 -16 -47 -2 -14 -48 -152 -61 -180 -5
-11 -17 -42 -28 -70 -36 -94 -108 -240 -180 -365 -63 -109 -73 -132 -73 -175
-1 -108 73 -203 172 -220 29 -5 114 24 130 45 3 3 28 21 55 40 28 19 52 36 55
39 3 4 32 26 65 50 33 25 62 48 63 53 2 4 10 8 17 8 7 0 15 4 17 8 2 5 46 44
98 88 52 43 115 96 140 118 77 70 383 378 435 440 28 32 55 64 60 70 118 130
350 459 457 646 117 205 150 276 147 318 -5 58 -122 275 -273 507 -69 105
-210 297 -275 375 -25 30 -53 63 -61 73 -64 81 -192 217 -325 348 -118 115
-175 167 -295 269 -25 21 -56 48 -69 59 -13 12 -27 21 -30 21 -3 0 -17 10 -31
23 -57 52 -272 208 -305 221 -37 15 -90 16 -120 2z m519 -716 c159 -143 329
-326 515 -555 36 -44 130 -173 157 -215 16 -25 31 -47 34 -50 14 -12 134 -210
187 -308 l34 -63 -58 -100 c-32 -55 -62 -108 -68 -117 -159 -274 -434 -615
-719 -891 -187 -182 -180 -177 -149 -95 14 38 29 78 34 89 9 23 52 155 55 170
1 6 12 45 24 88 12 43 24 90 26 105 3 15 10 45 16 67 6 22 12 56 14 75 2 19 6
46 9 60 4 13 8 40 11 60 2 19 6 49 8 65 23 152 34 481 21 650 -6 95 -24 245
-32 280 -3 11 -5 27 -5 35 0 8 -5 35 -10 60 -5 25 -11 52 -13 60 -5 26 -18 95
-20 100 -1 3 -5 21 -9 40 -4 19 -11 46 -17 60 -5 14 -10 34 -12 45 -2 11 -7
27 -10 35 -3 8 -17 51 -31 95 -22 72 -39 118 -75 209 l-11 28 28 -23 c15 -13
45 -40 66 -59z"/>
<path d="M7078 5877 c-51 -67 -154 -203 -228 -302 -74 -99 -137 -182 -140
-185 -3 -3 -23 -30 -45 -60 -21 -30 -43 -59 -50 -65 -6 -5 -26 -32 -45 -60
-19 -27 -43 -58 -52 -70 -14 -17 -337 -445 -392 -520 -11 -14 -28 -36 -38 -48
-26 -33 -30 -37 -73 -97 -43 -60 -63 -85 -82 -105 -7 -8 -13 -16 -13 -20 0 -4
-6 -12 -12 -19 -7 -7 -22 -25 -33 -40 -11 -15 -77 -102 -147 -194 -70 -92
-149 -200 -177 -239 -45 -66 -49 -77 -47 -123 6 -103 60 -145 214 -165 18 -2
45 -6 60 -9 15 -3 50 -8 77 -12 28 -3 60 -8 72 -9 23 -3 94 -15 124 -20 9 -2
40 -6 70 -10 30 -4 76 -11 102 -16 26 -5 51 -8 55 -8 4 1 9 0 12 -1 9 -3 34
-7 95 -15 33 -5 67 -9 75 -10 63 -11 102 -17 225 -35 77 -12 158 -24 180 -26
22 -3 51 -7 65 -10 14 -2 41 -7 60 -9 19 -3 51 -8 70 -12 55 -10 72 -9 114 5
52 16 84 56 124 156 30 74 112 303 111 309 -1 1 4 22 11 47 13 48 18 70 26
110 3 14 7 33 10 42 6 20 11 44 18 94 3 22 8 50 11 64 6 25 8 43 22 175 10 92
10 460 0 555 -10 95 -14 128 -21 165 -3 17 -8 47 -12 69 -7 50 -9 55 -33 156
-12 47 -24 96 -27 110 -3 13 -21 70 -40 125 -19 55 -36 107 -38 116 -11 45
-151 339 -161 339 -2 0 -46 -55 -97 -123z m43 -600 c19 -86 28 -131 33 -157
34 -182 40 -254 40 -480 0 -107 -3 -224 -7 -260 -14 -122 -16 -135 -22 -165
-3 -16 -8 -43 -11 -60 -2 -16 -7 -40 -9 -52 -3 -13 -6 -26 -6 -30 -1 -5 -8
-28 -15 -53 -7 -25 -15 -56 -17 -70 -6 -31 -64 -206 -79 -237 -6 -12 -14 -20
-18 -18 -4 3 -29 7 -56 11 -81 9 -99 12 -104 14 -3 1 -8 2 -12 2 -3 -1 -44 5
-90 13 -45 7 -101 16 -123 19 -22 3 -51 8 -65 10 -14 3 -47 8 -75 11 -27 3
-79 10 -115 16 -36 6 -76 12 -90 14 -41 6 -173 26 -200 31 -14 2 -45 7 -70 10
-24 3 -46 7 -49 9 -5 6 42 75 52 75 4 0 7 5 7 11 0 6 6 16 13 24 23 25 47 55
47 61 0 3 6 11 13 19 19 20 39 45 82 105 22 30 44 60 50 66 5 7 19 24 30 40
65 90 384 509 408 535 9 10 17 21 17 24 0 6 74 107 100 136 22 26 32 39 70 94
19 28 40 55 46 60 6 6 37 46 69 90 33 44 64 86 72 93 7 7 20 26 30 42 23 39
37 26 54 -53z"/>
<path d="M2097 5926 c-43 -23 -71 -66 -121 -186 -26 -64 -95 -260 -91 -260 2
0 -3 -16 -11 -35 -8 -19 -11 -35 -8 -35 4 0 1 -7 -6 -15 -7 -8 -10 -15 -6 -15
3 0 1 -11 -4 -26 -6 -14 -12 -37 -15 -52 -3 -15 -7 -37 -10 -49 -10 -44 -26
-125 -30 -153 -2 -8 -6 -46 -10 -83 -3 -37 -8 -78 -11 -90 -3 -18 -16 -263
-16 -302 0 -5 3 -62 6 -125 6 -114 10 -158 20 -235 4 -22 8 -55 11 -73 2 -18
9 -59 15 -90 6 -31 14 -70 17 -87 7 -39 9 -47 16 -65 3 -8 15 -51 26 -96 46
-177 188 -529 223 -550 11 -7 20 2 63 62 11 15 87 115 168 223 82 108 158 209
170 225 49 66 107 142 115 151 4 6 34 46 67 90 32 44 62 84 67 90 5 5 17 21
28 34 11 13 20 27 20 30 0 3 10 17 23 31 12 14 83 106 157 205 74 99 140 186
147 193 7 7 20 26 30 42 9 17 21 30 25 30 4 0 8 6 8 13 0 7 9 19 20 27 11 8
20 18 20 22 0 5 26 42 58 82 31 41 66 86 77 102 11 15 26 33 33 40 6 7 12 17
12 22 0 6 4 12 8 14 7 3 148 184 182 235 8 12 49 67 91 122 83 108 101 147 93
201 -13 82 -78 132 -189 144 -33 4 -69 9 -80 11 -11 3 -38 7 -59 10 -21 3 -48
7 -60 10 -12 2 -41 7 -66 10 -25 3 -56 7 -70 9 -42 8 -103 17 -140 22 -19 2
-46 6 -60 9 -14 2 -47 7 -75 11 -27 3 -59 8 -70 10 -11 2 -40 7 -65 10 -25 3
-52 7 -60 9 -8 1 -40 6 -70 10 -30 4 -64 9 -75 11 -11 3 -36 7 -55 9 -88 13
-116 18 -135 21 -11 2 -38 6 -60 9 -22 3 -51 7 -65 9 -33 6 -117 17 -153 21
-16 1 -47 -7 -70 -19z m245 -331 c13 -2 43 -7 68 -10 25 -2 56 -7 70 -9 14 -3
61 -10 105 -16 44 -6 89 -13 100 -14 22 -4 81 -13 135 -21 19 -2 44 -6 55 -9
23 -4 107 -16 150 -22 31 -4 95 -14 130 -20 29 -6 106 -16 132 -19 36 -3 37
-12 9 -47 -14 -18 -30 -38 -34 -43 -51 -70 -67 -91 -74 -93 -4 -2 -8 -10 -8
-17 0 -7 -4 -15 -8 -17 -5 -1 -49 -57 -98 -123 -49 -66 -91 -122 -94 -125 -3
-3 -107 -140 -230 -305 -124 -165 -228 -302 -231 -305 -3 -3 -35 -45 -72 -95
-37 -49 -70 -94 -75 -100 -4 -5 -48 -63 -97 -127 -49 -65 -92 -118 -95 -118
-4 0 -15 37 -25 83 -9 45 -21 96 -25 112 -5 17 -11 52 -15 78 -4 27 -8 56 -10
65 -26 138 -27 533 -1 712 6 41 17 113 22 142 2 15 8 38 14 52 5 15 8 26 6 26
-2 0 5 33 15 73 11 39 21 77 23 84 1 7 5 16 9 19 4 4 7 14 7 22 0 24 62 186
74 194 6 4 19 5 28 2 10 -3 28 -7 40 -9z"/>
<path d="M3321 4328 c-40 -11 -64 -33 -128 -118 -264 -349 -465 -616 -505
-670 -27 -36 -58 -76 -69 -90 -33 -40 -179 -233 -197 -260 -9 -14 -36 -50 -59
-81 -62 -80 -67 -157 -16 -219 6 -8 34 -42 60 -74 143 -178 336 -362 518 -497
33 -24 62 -46 65 -49 3 -3 14 -11 25 -17 11 -7 59 -37 106 -67 104 -66 285
-160 394 -205 44 -18 89 -37 100 -42 77 -34 373 -119 460 -133 17 -2 30 -5 30
-6 0 -2 26 -6 100 -15 86 -10 133 13 169 84 30 58 26 73 -141 501 -14 36 -29
74 -34 85 -5 11 -24 61 -42 110 -19 50 -71 187 -117 305 -46 118 -89 233 -97
255 -7 22 -18 49 -23 60 -15 32 -90 229 -90 237 0 4 -11 31 -23 60 -13 29 -32
76 -41 103 -10 28 -22 59 -27 70 -13 31 -99 255 -116 305 -8 25 -19 50 -23 55
-4 6 -13 28 -19 50 -12 39 -17 54 -39 105 -5 14 -15 40 -22 57 -30 80 -118
124 -199 101z m27 -550 c13 -35 28 -72 33 -83 9 -20 136 -352 190 -495 37
-101 125 -330 156 -410 14 -36 29 -74 33 -85 4 -11 12 -31 18 -45 14 -35 37
-94 38 -100 0 -3 6 -18 13 -35 7 -16 28 -72 47 -122 19 -51 48 -124 63 -162
16 -39 26 -72 23 -75 -2 -3 -14 0 -26 6 -11 6 -23 11 -26 10 -26 -9 -299 100
-450 179 -98 52 -335 199 -350 218 -3 3 -48 40 -100 83 -95 76 -330 311 -330
329 0 9 44 73 60 89 3 3 36 46 73 95 37 50 70 95 75 100 4 6 50 66 102 135 52
69 98 130 102 135 11 14 125 165 146 193 9 13 24 32 32 42 8 10 22 28 30 39 8
12 17 21 20 21 3 0 16 -28 28 -62z"/>
<path d="M4355 3433 c-30 -7 -83 -51 -99 -81 -29 -57 -24 -94 36 -247 37 -94
51 -132 135 -350 19 -49 40 -106 48 -125 8 -19 33 -84 55 -145 51 -135 139
-363 150 -390 5 -11 27 -69 50 -130 76 -203 80 -207 176 -201 32 2 59 5 59 6
0 1 16 3 35 4 45 4 117 15 155 23 17 4 37 7 45 8 35 5 203 48 295 76 142 44
261 92 410 166 166 82 195 98 339 195 117 79 131 88 165 118 9 8 39 33 66 55
140 111 325 303 446 460 77 101 112 156 103 164 -5 5 -49 14 -99 21 -49 7 -99
14 -110 17 -11 2 -38 6 -60 8 -22 2 -65 9 -95 14 -30 6 -73 13 -95 16 -22 3
-51 7 -65 9 -37 7 -96 15 -143 21 -23 3 -53 7 -67 10 -14 3 -45 8 -70 11 -54
7 -97 13 -130 19 -38 7 -102 16 -130 20 -14 2 -54 8 -90 14 -36 6 -81 12 -100
15 -66 9 -183 26 -204 31 -12 2 -39 7 -61 9 -22 3 -51 8 -65 10 -14 3 -47 8
-75 11 -45 5 -144 20 -202 30 -12 2 -57 9 -100 15 -43 6 -89 13 -103 16 -14 2
-45 6 -70 10 -25 3 -52 7 -60 9 -8 2 -37 7 -65 10 -27 3 -61 8 -75 11 -46 9
-75 13 -120 18 -25 3 -56 8 -69 11 -41 8 -125 13 -146 8z m370 -367 c28 -3 61
-8 75 -11 14 -3 43 -7 65 -10 22 -3 51 -7 65 -10 14 -3 45 -7 70 -10 25 -3 83
-12 130 -19 47 -8 106 -17 131 -21 25 -3 57 -8 70 -10 13 -2 42 -6 64 -10 22
-3 67 -10 100 -15 33 -5 78 -12 100 -15 22 -3 53 -8 68 -10 15 -2 47 -7 70
-10 23 -3 53 -8 67 -10 85 -14 160 -25 195 -30 48 -7 170 -25 205 -31 14 -2
45 -7 70 -10 25 -3 65 -10 90 -14 24 -5 48 -6 52 -4 3 2 9 0 12 -5 7 -10 -116
-124 -210 -197 -32 -25 -66 -50 -74 -57 -31 -25 -120 -83 -171 -111 -19 -10
-36 -22 -39 -26 -9 -12 -311 -156 -385 -183 -83 -30 -108 -38 -116 -34 -3 1
-12 -3 -20 -9 -26 -21 -375 -102 -387 -90 -2 3 -44 110 -93 238 -49 128 -102
267 -118 308 -16 41 -45 118 -65 170 -20 52 -41 104 -45 115 -22 51 -51 128
-51 136 0 5 6 7 13 4 6 -2 35 -6 62 -9z"/>
</g>
</svg>
