<svg width="51" height="48" viewBox="0 0 51 48" fill="none" xmlns="http://www.w3.org/2000/svg">
<path d="M22.7656 1.6718C23.8841 -0.557266 27.1159 -0.557266 28.2344 1.6718L33.7521 12.6679C34.1962 13.5531 35.0548 14.1666 36.048 14.3086L48.3859 16.0719C50.8869 16.4293 51.8856 19.4523 50.0758 21.1874L41.148 29.7467C40.4294 30.4357 40.1014 31.4284 40.2711 32.4013L42.3786 44.4873C42.8059 46.9372 40.1913 48.8056 37.9543 47.6488L26.9189 41.9426C26.0306 41.4833 24.9694 41.4833 24.0811 41.9426L13.0457 47.6488C10.8087 48.8056 8.19413 46.9372 8.62136 44.4873L10.7289 32.4013C10.8986 31.4284 10.5706 30.4357 9.85198 29.7467L0.924172 21.1874C-0.885613 19.4523 0.113048 16.4293 2.61411 16.0719L14.952 14.3086C15.9452 14.1666 16.8038 13.5531 17.2479 12.6679L22.7656 1.6718Z" fill="#F8F8F8"/>
</svg>
