<svg width="16" height="16" viewBox="0 0 16 16" fill="none" xmlns="http://www.w3.org/2000/svg">
<path fill-rule="evenodd" clip-rule="evenodd" d="M0.105447 0.552473C0.352461 0.058507 0.953144 -0.141688 1.44711 0.105325L3.44735 1.10557C3.75073 1.25728 3.95652 1.55242 3.99398 1.88954L4.21963 3.92036L14.9147 3.00363C15.2424 2.97554 15.5629 3.11036 15.772 3.36421C15.9811 3.61806 16.052 3.95848 15.9616 4.2747L13.9616 11.2747C13.839 11.704 13.4466 12 13.0001 12H4.0001C3.49055 12 3.06248 11.6168 3.00621 11.1104L2.33955 5.11042L2.06629 2.65107L0.552595 1.89414C0.0586291 1.64712 -0.141566 1.04644 0.105447 0.552473ZM4.44056 5.90876L4.89514 9.99998H12.2458L13.64 5.12022L4.44056 5.90876ZM6.0001 14.5C6.0001 15.3284 5.32852 16 4.5001 16C3.67167 16 3.0001 15.3284 3.0001 14.5C3.0001 13.6716 3.67167 13 4.5001 13C5.32852 13 6.0001 13.6716 6.0001 14.5ZM11.5004 16C12.3288 16 13.0004 15.3284 13.0004 14.5C13.0004 13.6716 12.3288 13 11.5004 13C10.6719 13 10.0004 13.6716 10.0004 14.5C10.0004 15.3284 10.6719 16 11.5004 16Z" fill="currentColor"/>
</svg>
