<svg width="80" height="78" viewBox="0 0 80 78" fill="none" xmlns="http://www.w3.org/2000/svg">
<path fill-rule="evenodd" clip-rule="evenodd" d="M27.9872 1.94899C28.5112 1.7744 28.7944 1.20811 28.6198 0.684148C28.4452 0.160186 27.8789 -0.123037 27.355 0.0515531C23.9853 1.17435 20.7623 2.7469 17.7772 4.74146C11.1992 9.13671 6.07234 15.3839 3.04484 22.6929C0.0173315 30.0019 -0.774802 38.0446 0.768607 45.8039C2.31202 53.5631 6.12165 60.6904 11.7157 66.2845C17.3098 71.8786 24.4372 75.6882 32.1964 77.2317C39.9556 78.7751 47.9983 77.9829 55.3074 74.9554C55.8176 74.7441 56.0599 74.1591 55.8485 73.6489C55.6372 73.1386 55.0522 72.8963 54.542 73.1077C47.5984 75.9838 39.9579 76.7363 32.5866 75.2701C25.2153 73.8038 18.4444 70.1847 13.13 64.8703C7.81556 59.5559 4.19642 52.785 2.73018 45.4137C1.26394 38.0424 2.01647 30.4019 4.8926 23.4583C7.76873 16.5147 12.6393 10.5799 18.8883 6.4044C21.7242 4.50956 24.7861 3.01565 27.9872 1.94899ZM80 38.0002C80 37.448 79.5523 37.0002 79 37.0002C78.4477 37.0002 78 37.448 78 38.0002C78 45.5159 75.7714 52.8628 71.5959 59.1119C68.8832 63.1717 65.4279 66.6497 61.4359 69.377C60.9799 69.6886 60.8628 70.3108 61.1743 70.7669C61.4859 71.2229 62.1081 71.34 62.5641 71.0284C66.7662 68.1576 70.4033 64.4966 73.2588 60.2231C77.6541 53.6451 80 45.9115 80 38.0002ZM68.0605 9.80839C67.67 9.41787 67.0368 9.41787 66.6463 9.80839C66.2558 10.1989 66.2558 10.8321 66.6463 11.2226C70.1498 14.7261 72.9166 18.8627 74.8154 23.387C75.0292 23.8963 75.6153 24.1358 76.1245 23.9221C76.6338 23.7084 76.8733 23.1223 76.6596 22.613C74.6608 17.8506 71.7485 13.4963 68.0605 9.80839ZM26.9056 7.69273C27.1399 8.19285 26.9244 8.78822 26.4242 9.02252C25.0803 9.65212 23.7845 10.3732 22.5455 11.1796C22.0826 11.4808 21.4631 11.3498 21.1619 10.8869C20.8606 10.424 20.9917 9.80457 21.4546 9.50332C22.771 8.64656 24.1479 7.88038 25.5758 7.21142C26.0759 6.97712 26.6712 7.19261 26.9056 7.69273ZM14.4281 17.1176C14.8663 17.4538 14.9489 18.0816 14.6127 18.5197C10.7599 23.5409 8.48247 29.5917 8.06853 35.9072C7.65459 42.2226 9.1227 48.519 12.2872 54.0001C15.4517 59.4812 20.1705 63.9008 25.8468 66.7C31.5231 69.4993 37.902 70.5524 44.1768 69.7263C50.4517 68.9002 56.3407 66.232 61.0991 62.059C65.8575 57.886 69.2716 52.3957 70.9096 46.2823C71.0526 45.7488 71.6009 45.4323 72.1344 45.5752C72.6678 45.7181 72.9844 46.2665 72.8415 46.7999C71.101 53.2954 67.4736 59.1288 62.4178 63.5626C57.362 67.9965 51.1049 70.8315 44.4379 71.7092C37.7709 72.5869 30.9933 71.468 24.9622 68.4938C18.9311 65.5196 13.9174 60.8237 10.5551 55.0001C7.19287 49.1764 5.633 42.4865 6.07281 35.7764C6.51262 29.0662 8.93235 22.6372 13.026 17.3022C13.3622 16.864 13.99 16.7814 14.4281 17.1176ZM42.541 7.82815C42.874 6.62121 43.7162 6.04652 44.4724 6.00265C45.1911 5.96096 46.1683 6.38889 46.7848 7.93299L47.7135 7.56219L46.7848 7.93302C47.5012 9.72714 47.3433 12.4409 46.5886 15.6746C45.8455 18.8582 44.5763 22.3408 43.2937 25.5497C43.1706 25.8577 43.2083 26.2068 43.3943 26.4816C43.5803 26.7563 43.8905 26.9208 44.2223 26.9208H57.5946C59.2516 26.9208 60.6487 28.3164 60.6487 30.105C60.6487 31.8936 59.2516 33.2892 57.5946 33.2892C57.0423 33.2892 56.5946 33.737 56.5946 34.2892C56.5946 34.8415 57.0423 35.2892 57.5946 35.2892H58.9459C60.603 35.2892 62 36.6849 62 38.4735C62 40.2621 60.603 41.6577 58.9459 41.6577H57.5946C57.0423 41.6577 56.5946 42.1054 56.5946 42.6577C56.5946 43.21 57.0423 43.6577 57.5946 43.6577C59.2516 43.6577 60.6487 45.0533 60.6487 46.8419C60.6487 48.6305 59.2516 50.0261 57.5946 50.0261H54.8919C54.3396 50.0261 53.8919 50.4738 53.8919 51.0261C53.8919 51.5784 54.3396 52.0261 54.8919 52.0261C55.6685 52.0261 56.2424 52.288 56.623 52.6808C57.0064 53.0765 57.2703 53.6848 57.2703 54.5129C57.2703 55.341 57.0064 55.9494 56.6231 56.3451C56.2425 56.7379 55.6687 56.9998 54.8926 56.9998H54.8827C43.1678 56.9998 42.0407 56.9998 33.3522 56.2918C29.6063 55.9865 28.5752 55.9886 24.5615 55.9966C23.8211 55.9981 22.9792 55.9998 22 55.9998C21.4477 55.9998 21 56.4475 21 56.9998C21 57.5521 21.4477 57.9998 22 57.9998C22.9859 57.9998 23.831 57.9981 24.5718 57.9967L24.5753 57.9966H24.5755C28.5707 57.9887 29.5292 57.9868 33.1897 58.2851C41.9569 58.9996 43.1423 58.9998 54.8926 58.9998C56.1428 58.9998 57.2578 58.5643 58.0595 57.7367C58.8585 56.9119 59.2703 55.7769 59.2703 54.5129C59.2703 53.551 59.0318 52.6637 58.5655 51.931C60.9111 51.4647 62.6487 49.3409 62.6487 46.8419C62.6487 45.4047 62.074 44.0916 61.1394 43.1465C62.8415 42.3044 64 40.514 64 38.4735C64 36.4329 62.8415 34.6425 61.1394 33.8004C62.074 32.8553 62.6487 31.5422 62.6487 30.105C62.6487 27.2719 60.4152 24.9208 57.5946 24.9208H45.691C46.7989 22.0626 47.8664 18.9993 48.5362 16.1291C49.303 12.844 49.6035 9.59883 48.6422 7.1914C47.782 5.03686 46.1216 3.90362 44.3566 4.00601C42.6291 4.10622 41.1415 5.38086 40.613 7.29624L40.613 7.2963C38.928 13.4052 35.8109 16.5667 32.1547 20.2751C31.7409 20.6948 31.3202 21.1215 30.8939 21.5603C30.8616 21.5935 30.8317 21.6289 30.8043 21.6663C29.2282 23.8184 27.975 25.2013 26.7476 26.1495C25.5402 27.0823 24.3168 27.6255 22.7492 28.0318C22.2145 28.1703 21.8934 28.716 22.032 29.2506C22.1705 29.7853 22.7162 30.1063 23.2508 29.9678C25.0225 29.5087 26.5063 28.8632 27.9703 27.7322C29.4021 26.6261 30.7736 25.0874 32.3764 22.9044C32.7799 22.4897 33.183 22.0816 33.5839 21.6758L33.584 21.6757C37.2432 17.9711 40.7119 14.4594 42.541 7.82815ZM23.1296 38.6043C23.6772 38.5327 24.0631 38.0308 23.9916 37.4831C23.92 36.9355 23.418 36.5496 22.8704 36.6212C20.6685 36.909 18.6708 36.9998 14 36.9998C13.4477 36.9998 13 37.4475 13 37.9998C13 38.5521 13.4477 38.9998 14 38.9998C18.6895 38.9998 20.7936 38.9096 23.1296 38.6043ZM16.0889 49.0221C18.978 48.7643 22.7826 48.519 27.9662 48.6941C28.5182 48.7128 28.9808 48.2804 28.9994 47.7285C29.0181 47.1765 28.5857 46.7139 28.0338 46.6953C22.7462 46.5167 18.8563 46.7672 15.9111 47.0301C15.361 47.0791 14.9549 47.5649 15.004 48.115C15.0531 48.6651 15.5388 49.0712 16.0889 49.0221Z" fill="#65CD54"/>
</svg>
