<svg width="17" height="16" viewBox="0 0 17 16" fill="none" xmlns="http://www.w3.org/2000/svg">
<path d="M7.58854 0.557266C7.96138 -0.185755 9.03862 -0.185755 9.41146 0.557266L11.2507 4.22265C11.3987 4.5177 11.6849 4.72221 12.016 4.76953L16.1286 5.3573C16.9623 5.47645 17.2952 6.48411 16.6919 7.06248L13.716 9.91558C13.4765 10.1452 13.3671 10.4761 13.4237 10.8004L14.1262 14.8291C14.2686 15.6457 13.3971 16.2685 12.6514 15.8829L8.97298 13.9809C8.67688 13.8278 8.32313 13.8278 8.02702 13.9809L4.34856 15.8829C3.60289 16.2685 2.73138 15.6457 2.87379 14.8291L3.57631 10.8004C3.63286 10.4761 3.52355 10.1452 3.28399 9.91558L0.308057 7.06248C-0.295204 6.48411 0.0376828 5.47645 0.87137 5.3573L4.98401 4.76953C5.31507 4.72221 5.60126 4.5177 5.74931 4.22265L7.58854 0.557266Z" fill="#ED9E41"/>
</svg>
