<svg width="24" height="16" viewBox="0 0 24 16" fill="none" xmlns="http://www.w3.org/2000/svg">
<path fill-rule="evenodd" clip-rule="evenodd" d="M9.44775 0.105325C8.95378 -0.141688 8.3531 0.058507 8.10608 0.552473C7.85907 1.04644 8.05926 1.64712 8.55323 1.89414L10.0669 2.65107L10.3402 5.11042L11.0068 11.1104C11.0631 11.6168 11.4912 12 12.0007 12H21.0007C21.4472 12 21.8396 11.704 21.9623 11.2747L23.9623 4.2747C24.0526 3.95848 23.9817 3.61806 23.7726 3.36421C23.5635 3.11036 23.243 2.97554 22.9153 3.00363L12.2203 3.92036L11.9946 1.88954C11.9572 1.55242 11.7514 1.25728 11.448 1.10557L9.44775 0.105325ZM12.8958 9.99998L12.4412 5.90876L21.6406 5.12022L20.2464 9.99998H12.8958ZM4.99951 4.99973C4.99951 4.44745 4.5518 3.99973 3.99951 3.99973C3.44723 3.99973 2.99951 4.44745 2.99951 4.99973V6.99973H0.999512C0.447227 6.99973 -0.000488281 7.44745 -0.000488281 7.99973C-0.000488281 8.55202 0.447227 8.99973 0.999512 8.99973H2.99951V10.9997C2.99951 11.552 3.44723 11.9997 3.99951 11.9997C4.5518 11.9997 4.99951 11.552 4.99951 10.9997V8.99973H6.99951C7.5518 8.99973 7.99951 8.55202 7.99951 7.99973C7.99951 7.44745 7.5518 6.99973 6.99951 6.99973H4.99951V4.99973ZM14.0005 14.5002C14.0005 15.3286 13.3289 16.0002 12.5005 16.0002C11.6721 16.0002 11.0005 15.3286 11.0005 14.5002C11.0005 13.6718 11.6721 13.0002 12.5005 13.0002C13.3289 13.0002 14.0005 13.6718 14.0005 14.5002ZM19.501 16.0002C20.3294 16.0002 21.001 15.3286 21.001 14.5002C21.001 13.6718 20.3294 13.0002 19.501 13.0002C18.6726 13.0002 18.001 13.6718 18.001 14.5002C18.001 15.3286 18.6726 16.0002 19.501 16.0002Z" fill="currentColor"/>
</svg>
